<svg version="1.0" xmlns="http://www.w3.org/2000/svg"
 width="1024.000000pt" height="1024.000000pt" viewBox="0 0 1024.000000 1024.000000"
 preserveAspectRatio="xMidYMid meet">

<g transform="translate(0.000000,1024.000000) scale(0.100000,-0.100000)"
fill="#530076" stroke="none">
<path d="M3639 9406 c-94 -33 -174 -113 -238 -236 -60 -115 -93 -222 -126
-413 l-6 -38 -53 108 c-110 223 -260 404 -382 460 -113 51 -220 28 -290 -64
-85 -111 -67 -336 45 -592 23 -50 41 -94 41 -96 0 -3 -32 16 -71 41 -39 26
-118 68 -174 95 -363 171 -604 125 -605 -116 0 -88 47 -180 141 -280 73 -77
227 -199 313 -250 25 -15 46 -28 46 -28 0 -1 -54 -3 -119 -4 -374 -7 -621
-135 -621 -323 0 -186 249 -318 635 -339 l120 -6 -85 -59 c-47 -32 -137 -111
-201 -175 -94 -94 -123 -130 -153 -191 -45 -93 -55 -163 -32 -224 36 -95 139
-144 274 -132 125 10 322 85 461 173 42 27 52 31 48 16 -4 -10 -31 -90 -61
-178 -94 -272 -117 -434 -117 -811 1 -666 127 -1349 410 -2226 33 -102 97
-298 141 -435 199 -611 290 -995 309 -1298 20 -333 -42 -558 -182 -654 -108
-74 -240 -78 -442 -15 -197 62 -301 50 -364 -42 -53 -77 -37 -178 51 -321 74
-121 62 -143 -90 -164 -101 -14 -126 -35 -119 -99 6 -55 55 -105 114 -116 89
-17 238 31 322 103 106 90 106 205 0 359 -17 25 -29 48 -26 50 2 3 30 -7 62
-21 152 -67 307 -85 438 -50 214 56 382 224 455 455 41 129 47 179 46 385 -1
420 -90 797 -428 1800 -329 980 -434 1395 -496 1960 -12 107 -26 605 -18 605
3 0 25 -7 48 -15 108 -38 213 -1 330 116 80 80 181 228 241 353 l43 89 22
-126 c58 -338 191 -559 350 -583 49 -7 113 12 157 46 42 33 86 113 108 196 26
99 36 306 20 423 -6 46 -10 85 -9 86 2 1 32 -30 67 -69 266 -296 527 -394 654
-245 82 95 76 231 -17 424 -43 90 -132 222 -187 280 -16 17 -29 34 -29 37 0 4
26 -2 57 -13 183 -63 448 -84 567 -45 73 24 134 69 163 121 29 51 31 142 4
200 -56 122 -233 241 -470 316 l-104 33 104 33 c136 44 289 120 364 180 68 55
121 136 130 198 19 121 -78 231 -233 264 -74 16 -259 14 -376 -4 -55 -8 -102
-15 -105 -15 -16 1 53 45 132 86 229 117 519 197 867 241 221 27 745 24 1160
-7 407 -30 775 -33 935 -6 90 15 213 46 282 73 32 13 1 -217 -52 -374 -49
-145 -124 -291 -281 -539 -229 -365 -250 -424 -241 -683 9 -259 70 -455 291
-936 49 -107 55 -139 31 -185 -20 -38 -121 -86 -285 -135 -69 -20 -147 -49
-174 -63 -89 -48 -136 -126 -136 -223 0 -42 7 -73 45 -201 24 -78 16 -101 -42
-126 -27 -11 -68 -25 -93 -32 -69 -18 -218 -90 -225 -109 -7 -17 20 -44 94
-93 51 -34 95 -99 86 -127 -4 -14 -27 -26 -73 -42 -93 -30 -131 -51 -174 -96
-51 -53 -74 -109 -98 -248 -34 -189 -81 -270 -187 -321 -110 -51 -273 -42
-433 27 -140 59 -236 121 -615 393 -323 233 -514 320 -730 333 -114 7 -227
-12 -328 -52 -91 -38 -216 -126 -299 -213 -220 -231 -350 -548 -414 -1012 -21
-158 -30 -653 -15 -846 62 -777 275 -1343 678 -1799 65 -74 209 -205 234 -214
6 -2 -18 36 -54 85 -219 301 -361 575 -470 909 -269 828 -262 1852 17 2416 65
130 111 195 210 295 273 272 553 258 981 -52 474 -343 558 -397 716 -465 352
-152 691 -89 858 161 53 81 76 146 100 285 27 158 36 170 142 210 47 17 102
45 122 60 90 72 108 188 51 321 -3 7 12 13 37 17 56 7 127 53 164 106 43 62
47 161 11 295 -15 54 -24 106 -21 116 6 18 36 30 155 60 319 80 455 185 468
361 6 86 -11 144 -104 346 -94 205 -198 469 -230 586 -19 69 -27 127 -31 228
-9 219 20 312 151 493 179 247 278 423 339 607 57 169 71 255 72 424 0 168 -7
194 -64 232 -52 35 -107 31 -210 -16 -101 -46 -192 -65 -391 -81 -171 -14
-320 -9 -780 27 -436 34 -964 39 -1185 10 -268 -35 -527 -98 -705 -170 -47
-19 -86 -33 -88 -32 -2 2 6 21 17 44 12 22 28 66 36 98 29 109 15 191 -41 253
-49 54 -107 74 -190 67 -124 -10 -313 -123 -501 -300 -48 -45 -83 -73 -79 -62
14 38 19 356 7 432 -36 208 -173 323 -322 269z m109 -201 c34 -43 47 -120 46
-265 -2 -187 -46 -390 -129 -605 -49 -125 -44 -120 -98 -106 -25 6 -69 11 -96
11 l-51 0 0 108 c1 269 54 548 139 727 67 142 140 192 189 130z m-952 -113
c121 -89 273 -326 377 -592 44 -111 95 -278 86 -283 -2 -1 -36 -18 -76 -38
l-72 -36 -29 31 c-85 89 -215 283 -287 425 -122 242 -155 521 -61 521 13 0 41
-13 62 -28z m1775 -233 c17 -17 20 -28 15 -62 -30 -187 -345 -551 -618 -714
-40 -24 -77 -43 -83 -43 -5 0 -36 26 -68 57 l-59 56 66 96 c99 146 182 245
312 371 139 134 237 204 331 236 83 29 78 29 104 3z m-2375 -310 c210 -54 566
-278 757 -476 l38 -40 -35 -59 c-20 -32 -39 -65 -44 -73 -7 -12 -22 -9 -93 19
-116 46 -338 156 -437 218 -256 159 -434 340 -403 408 9 22 17 24 74 24 35 0
99 -9 143 -21z m2801 -412 c94 -50 47 -124 -137 -217 -192 -97 -457 -161 -722
-176 -96 -6 -118 -4 -121 7 -2 8 -13 44 -25 82 l-20 67 131 66 c148 72 322
133 472 163 145 29 149 29 275 27 87 -1 123 -6 147 -19z m-1384 -115 c173 -85
268 -277 223 -452 -52 -201 -254 -335 -455 -300 -355 62 -462 494 -176 712 73
56 151 79 256 75 74 -3 96 -8 152 -35z m-1018 -231 c109 -19 262 -54 270 -63
2 -2 5 -41 6 -88 l2 -85 -139 -23 c-118 -20 -177 -24 -394 -25 -226 -1 -266 1
-352 20 -154 34 -258 89 -258 138 0 57 138 119 325 144 111 15 402 5 540 -18z
m1653 -237 c312 -46 629 -163 745 -275 62 -60 63 -94 2 -124 -34 -17 -58 -20
-155 -19 -248 3 -565 105 -805 258 -48 32 -56 40 -50 59 3 12 11 40 17 62 5
22 11 46 14 52 4 15 67 11 232 -13z m-1328 -142 c0 -5 20 -38 45 -75 l44 -66
-120 -101 c-274 -230 -473 -355 -668 -420 -110 -37 -192 -41 -214 -9 -37 52
44 174 204 305 157 128 384 257 589 334 113 42 120 44 120 32z m1168 -295
c252 -231 420 -473 439 -635 16 -136 -130 -93 -330 98 -55 52 -129 131 -165
175 -73 91 -193 270 -243 363 -33 62 -34 64 -14 74 11 7 40 31 65 54 l44 42
57 -45 c32 -25 98 -82 147 -126z m-904 33 c32 -17 65 -30 72 -30 17 0 17 -10
-1 -90 -82 -353 -328 -796 -472 -851 -36 -14 -70 2 -79 37 -25 97 28 308 131
523 82 169 253 440 280 440 6 1 37 -13 69 -29z m454 -135 c85 -227 124 -433
124 -654 -1 -199 -26 -304 -78 -317 -49 -13 -98 43 -148 170 -72 180 -108 403
-110 676 l-1 195 64 7 c34 4 68 9 75 12 29 12 42 -4 74 -89z"/>
</g>
</svg>
