<svg id="Capa_2" data-name="Capa 2" xmlns="http://www.w3.org/2000/svg" viewBox="0 0 1024.76 209.86" class="mb-2 w-44"><g id="Capa_1-2" data-name="Capa 1"><g class="cls-1"><g><path d="M328.16,121.61V51.22h16.26v70.39h-16.26Z"></path><path d="M374.15,81.36v40.25h-16.26V51.22h12.69l32.81,41.34v-41.34h16.26v70.39h-13.09l-32.42-40.25Z"></path><path d="M433.14,121.61V51.22h47.78v14.28h-31.52v15.17h25.97v13.18h-25.97v27.76h-16.26Z"></path><path d="M518.79,122.2c-5.22,0-9.98-1.02-14.28-3.07-4.3-2.05-7.96-4.74-11-8.08-3.04-3.34-5.4-7.15-7.09-11.45-1.69-4.3-2.53-8.72-2.53-13.28s.88-9.09,2.63-13.38c1.75-4.3,4.2-8.08,7.34-11.35,3.14-3.27,6.86-5.88,11.15-7.83,4.3-1.95,8.99-2.92,14.08-2.92s9.98,1.03,14.28,3.07c4.3,2.05,7.96,4.76,11,8.13,3.04,3.37,5.39,7.2,7.04,11.5,1.65,4.3,2.48,8.66,2.48,13.09s-.88,9.09-2.63,13.38c-1.75,4.3-4.18,8.08-7.29,11.35-3.11,3.27-6.81,5.9-11.1,7.88-4.3,1.98-8.99,2.97-14.08,2.97ZM500.45,86.51c0,2.71.4,5.34,1.19,7.88.79,2.55,1.97,4.81,3.52,6.79,1.55,1.98,3.49,3.57,5.8,4.76,2.31,1.19,4.96,1.78,7.93,1.78s5.81-.63,8.13-1.88c2.31-1.25,4.23-2.89,5.75-4.91,1.52-2.02,2.66-4.3,3.42-6.84.76-2.54,1.14-5.14,1.14-7.78s-.4-5.34-1.19-7.88c-.79-2.54-1.98-4.79-3.57-6.74-1.59-1.95-3.52-3.5-5.8-4.66-2.28-1.16-4.91-1.73-7.88-1.73s-5.8.61-8.08,1.83c-2.28,1.22-4.2,2.83-5.75,4.81-1.55,1.98-2.71,4.25-3.47,6.79-.76,2.55-1.14,5.14-1.14,7.78Z"></path><path d="M563.3,121.61V51.22h31.72c3.3,0,6.36.69,9.17,2.08,2.81,1.39,5.24,3.21,7.29,5.45,2.05,2.25,3.65,4.79,4.81,7.63,1.16,2.84,1.73,5.72,1.73,8.62,0,2.18-.26,4.28-.79,6.29-.53,2.02-1.29,3.92-2.28,5.7-.99,1.78-2.2,3.39-3.62,4.81-1.42,1.42-3.02,2.63-4.81,3.62l15.47,26.17h-18.34l-13.48-22.7h-10.61v22.7h-16.26ZM579.56,84.73h14.87c1.92,0,3.57-.91,4.96-2.73,1.39-1.82,2.08-4.15,2.08-6.99s-.79-5.22-2.38-6.94c-1.59-1.72-3.31-2.58-5.15-2.58h-14.37v19.23Z"></path><path d="M685.23,121.61v-42.13l-15.27,30.63h-8.72l-15.27-30.63v42.13h-16.26V51.22h17.65l18.24,36.78,18.34-36.78h17.55v70.39h-16.26Z"></path><path d="M734.11,51.22h14.67l25.68,70.39h-16.65l-5.45-15.76h-21.91l-5.35,15.76h-16.65l25.68-70.39ZM749.67,94.64l-8.23-24.88-8.43,24.88h16.65ZM746,46.56l-10.11-2.78,5.15-12.89h14.37l-9.42,15.66Z"></path><path d="M828.09,65.5h-21.41v56.11h-16.26v-56.11h-21.51v-14.28h59.18v14.28Z"></path><path d="M836.02,121.61V51.22h16.26v70.39h-16.26Z"></path><path d="M861.69,85.82c0-4.23.79-8.44,2.38-12.64,1.59-4.2,3.9-7.95,6.94-11.25,3.04-3.3,6.74-5.98,11.1-8.03,4.36-2.05,9.32-3.07,14.87-3.07,6.61,0,12.34,1.42,17.2,4.26,4.86,2.84,8.48,6.54,10.86,11.1l-12.49,8.72c-.79-1.85-1.8-3.39-3.02-4.61-1.22-1.22-2.56-2.21-4.02-2.97-1.45-.76-2.94-1.29-4.46-1.59-1.52-.3-3.01-.45-4.46-.45-3.11,0-5.82.63-8.13,1.88-2.31,1.26-4.23,2.88-5.75,4.86-1.52,1.98-2.64,4.23-3.37,6.74-.73,2.51-1.09,5.06-1.09,7.63,0,2.78.43,5.45,1.29,8.03.86,2.58,2.1,4.86,3.72,6.84,1.62,1.98,3.57,3.55,5.85,4.71,2.28,1.16,4.84,1.73,7.68,1.73,1.45,0,2.96-.18,4.51-.55,1.55-.36,3.04-.92,4.46-1.69,1.42-.76,2.73-1.75,3.92-2.97,1.19-1.22,2.15-2.73,2.87-4.51l13.28,7.83c-1.06,2.58-2.63,4.89-4.71,6.94-2.08,2.05-4.48,3.77-7.19,5.15-2.71,1.39-5.59,2.45-8.62,3.17-3.04.73-6.01,1.09-8.92,1.09-5.09,0-9.76-1.04-14.03-3.12-4.26-2.08-7.93-4.84-11-8.28-3.07-3.44-5.45-7.34-7.14-11.7-1.69-4.36-2.53-8.79-2.53-13.28Z"></path><path d="M952.1,51.22h14.67l25.68,70.39h-16.65l-5.45-15.76h-21.91l-5.35,15.76h-16.65l25.68-70.39ZM967.66,94.64l-8.23-24.88-8.43,24.88h16.65Z"></path></g><g><path d="M328.16,38.36V5.13h11.04c2.62,0,4.92.44,6.9,1.31,1.98.87,3.63,2.06,4.94,3.56,1.31,1.5,2.29,3.25,2.95,5.26s.98,4.16.98,6.43c0,2.53-.37,4.81-1.1,6.86-.73,2.04-1.79,3.79-3.16,5.24-1.37,1.45-3.03,2.57-4.98,3.37-1.95.8-4.13,1.19-6.53,1.19h-11.04ZM352.58,21.7c0-2.09-.3-4.02-.89-5.78-.59-1.76-1.46-3.28-2.6-4.56-1.14-1.28-2.53-2.28-4.19-3-1.65-.72-3.56-1.08-5.71-1.08h-8.66v28.92h8.66c2.18,0,4.11-.37,5.78-1.1,1.67-.73,3.07-1.76,4.19-3.07,1.12-1.31,1.97-2.85,2.55-4.61.58-1.76.87-3.67.87-5.73Z"></path><path d="M371.16,38.83c-1.72,0-3.31-.34-4.77-1.01-1.47-.67-2.74-1.59-3.81-2.76-1.08-1.17-1.92-2.52-2.53-4.05-.61-1.53-.91-3.17-.91-4.91s.3-3.33.91-4.84c.61-1.51,1.44-2.84,2.5-3.98,1.06-1.14,2.32-2.04,3.77-2.69,1.45-.66,3.02-.98,4.7-.98s3.31.34,4.77,1.01c1.47.67,2.73,1.58,3.79,2.71,1.06,1.14,1.89,2.46,2.48,3.98.59,1.51.89,3.11.89,4.8v.59c0,.23-.02.38-.05.44h-21.34c.09,1.4.42,2.71.98,3.91.56,1.2,1.27,2.24,2.13,3.11.86.87,1.85,1.56,2.97,2.06,1.12.5,2.32.75,3.6.75.84,0,1.67-.12,2.48-.35.81-.23,1.57-.55,2.27-.96.7-.41,1.33-.9,1.87-1.47.55-.58.97-1.21,1.29-1.9l2.06.56c-.34.87-.85,1.68-1.52,2.41-.67.73-1.45,1.37-2.34,1.9-.89.53-1.86.94-2.93,1.24-1.06.3-2.15.44-3.28.44ZM380.71,25.26c-.09-1.43-.41-2.75-.96-3.93-.55-1.19-1.25-2.21-2.11-3.07-.86-.86-1.85-1.53-2.97-2.01-1.12-.48-2.32-.73-3.6-.73s-2.48.24-3.6.73c-1.12.48-2.11,1.15-2.97,2.01-.86.86-1.54,1.89-2.06,3.09-.51,1.2-.82,2.5-.91,3.91h19.19Z"></path><path d="M399.99,38.83c-2.09,0-3.95-.55-5.59-1.66-1.64-1.11-2.96-2.46-3.95-4.05v15.21h-2.34V14.02h2.15v4.87c1-1.56,2.32-2.83,3.95-3.81,1.64-.98,3.39-1.47,5.26-1.47,1.68,0,3.24.36,4.68,1.08,1.43.72,2.67,1.66,3.7,2.83,1.03,1.17,1.83,2.52,2.41,4.05.58,1.53.87,3.09.87,4.68,0,1.68-.27,3.29-.8,4.82-.53,1.53-1.29,2.87-2.27,4.02-.98,1.15-2.16,2.07-3.53,2.74-1.37.67-2.89,1.01-4.54,1.01ZM399.43,36.72c1.4,0,2.68-.3,3.84-.89,1.15-.59,2.14-1.38,2.95-2.36.81-.98,1.43-2.11,1.87-3.37.44-1.26.66-2.55.66-3.86,0-1.4-.25-2.74-.75-4-.5-1.26-1.19-2.38-2.08-3.35-.89-.97-1.93-1.74-3.11-2.32-1.19-.58-2.45-.87-3.79-.87-.84,0-1.74.18-2.69.54-.95.36-1.85.84-2.69,1.45-.84.61-1.56,1.3-2.15,2.08-.59.78-.94,1.61-1.03,2.48v8c.41.91.92,1.75,1.54,2.53.62.78,1.33,1.47,2.11,2.06.78.59,1.62,1.05,2.53,1.38.9.33,1.84.49,2.81.49Z"></path><path d="M422.74,38.83c-1.12,0-2.17-.2-3.14-.59-.97-.39-1.82-.92-2.55-1.59-.73-.67-1.3-1.47-1.71-2.39-.41-.92-.61-1.91-.61-2.97s.25-2.03.75-2.9c.5-.87,1.19-1.63,2.08-2.27.89-.64,1.96-1.14,3.21-1.5,1.25-.36,2.62-.54,4.12-.54,1.31,0,2.63.12,3.95.35,1.33.23,2.52.55,3.58.96v-2.39c0-2.31-.66-4.14-1.97-5.5s-3.09-2.04-5.34-2.04c-1.19,0-2.44.25-3.77.75-1.33.5-2.68,1.22-4.05,2.15l-.89-1.59c3.12-2.12,6.08-3.18,8.89-3.18s5.24.85,6.93,2.55c1.68,1.7,2.53,4.05,2.53,7.04v11.89c0,.78.34,1.17,1.03,1.17v2.11c-.16.03-.32.05-.49.07-.17.02-.32.02-.44.02-.62,0-1.12-.21-1.5-.63-.37-.42-.59-.93-.66-1.52v-2.01c-1.12,1.47-2.56,2.59-4.31,3.37-1.75.78-3.64,1.17-5.66,1.17ZM423.2,36.96c1.81,0,3.47-.34,4.98-1.03,1.51-.69,2.67-1.59,3.49-2.71.5-.66.75-1.28.75-1.87v-4.31c-1.12-.44-2.29-.76-3.51-.98-1.22-.22-2.48-.33-3.79-.33-1.22,0-2.32.13-3.32.4-1,.27-1.86.63-2.57,1.1-.72.47-1.27,1.04-1.66,1.71-.39.67-.59,1.41-.59,2.22s.16,1.58.47,2.29c.31.72.75,1.33,1.31,1.85s1.22.92,1.99,1.22c.76.3,1.58.44,2.46.44Z"></path><path d="M453.39,16.13c-2.18.06-4.1.71-5.73,1.94-1.64,1.23-2.78,2.93-3.44,5.08v15.21h-2.34V14.02h2.25v5.99c.84-1.72,1.96-3.11,3.35-4.19,1.39-1.08,2.88-1.69,4.47-1.85.31-.03.59-.05.84-.05h.61v2.2Z"></path><path d="M468.69,37.19c-.13.06-.34.18-.63.35-.3.17-.67.34-1.12.49-.45.16-.96.3-1.52.42-.56.12-1.17.19-1.83.19s-1.27-.09-1.85-.28c-.58-.19-1.08-.47-1.52-.84-.44-.37-.78-.83-1.03-1.36-.25-.53-.37-1.15-.37-1.87V15.94h-3.42v-1.92h3.42V5.69h2.34v8.33h5.66v1.92h-5.66v17.78c0,.91.31,1.58.94,2.04.62.45,1.33.68,2.11.68.97,0,1.8-.16,2.5-.49.7-.33,1.13-.54,1.29-.63l.7,1.87Z"></path><path d="M478.8,38.83c-1.12,0-2.17-.2-3.14-.59-.97-.39-1.82-.92-2.55-1.59-.73-.67-1.3-1.47-1.71-2.39-.41-.92-.61-1.91-.61-2.97s.25-2.03.75-2.9c.5-.87,1.19-1.63,2.08-2.27.89-.64,1.96-1.14,3.21-1.5,1.25-.36,2.62-.54,4.12-.54,1.31,0,2.63.12,3.95.35,1.33.23,2.52.55,3.58.96v-2.39c0-2.31-.66-4.14-1.97-5.5-1.31-1.36-3.09-2.04-5.34-2.04-1.19,0-2.44.25-3.77.75-1.33.5-2.68,1.22-4.05,2.15l-.89-1.59c3.12-2.12,6.08-3.18,8.89-3.18s5.24.85,6.93,2.55c1.68,1.7,2.53,4.05,2.53,7.04v11.89c0,.78.34,1.17,1.03,1.17v2.11c-.16.03-.32.05-.49.07-.17.02-.32.02-.44.02-.62,0-1.12-.21-1.5-.63-.37-.42-.59-.93-.66-1.52v-2.01c-1.12,1.47-2.56,2.59-4.31,3.37-1.75.78-3.64,1.17-5.66,1.17ZM479.27,36.96c1.81,0,3.47-.34,4.98-1.03,1.51-.69,2.67-1.59,3.49-2.71.5-.66.75-1.28.75-1.87v-4.31c-1.12-.44-2.29-.76-3.51-.98-1.22-.22-2.48-.33-3.79-.33-1.22,0-2.32.13-3.32.4-1,.27-1.86.63-2.57,1.1-.72.47-1.27,1.04-1.66,1.71-.39.67-.59,1.41-.59,2.22s.16,1.58.47,2.29c.31.72.75,1.33,1.31,1.85s1.22.92,1.99,1.22c.76.3,1.58.44,2.46.44Z"></path><path d="M533.69,38.36h-2.34v-13.57c0-3.09-.48-5.37-1.43-6.83-.95-1.47-2.41-2.2-4.38-2.2-1,0-1.95.19-2.85.56-.91.37-1.73.9-2.48,1.57-.75.67-1.4,1.47-1.94,2.39-.55.92-.98,1.94-1.29,3.07v15.02h-2.34v-13.57c0-3.12-.47-5.41-1.4-6.86-.94-1.45-2.39-2.18-4.35-2.18-1,0-1.94.18-2.83.54-.89.36-1.71.87-2.46,1.54-.75.67-1.41,1.47-1.99,2.39-.58.92-1.02,1.94-1.33,3.07v15.07h-2.34V14.02h2.2v5.8c1-1.97,2.31-3.49,3.93-4.59,1.62-1.09,3.42-1.64,5.38-1.64s3.73.61,5.01,1.83c1.28,1.22,2.04,2.81,2.29,4.77,2.31-4.4,5.49-6.6,9.55-6.6,2.65,0,4.55.94,5.69,2.83,1.14,1.89,1.71,4.53,1.71,7.93v13.99Z"></path><path d="M551.1,38.83c-1.72,0-3.31-.34-4.77-1.01-1.47-.67-2.74-1.59-3.81-2.76-1.08-1.17-1.92-2.52-2.53-4.05-.61-1.53-.91-3.17-.91-4.91s.3-3.33.91-4.84c.61-1.51,1.44-2.84,2.5-3.98,1.06-1.14,2.32-2.04,3.77-2.69,1.45-.66,3.02-.98,4.7-.98s3.31.34,4.77,1.01c1.47.67,2.73,1.58,3.79,2.71,1.06,1.14,1.89,2.46,2.48,3.98.59,1.51.89,3.11.89,4.8v.59c0,.23-.02.38-.05.44h-21.34c.09,1.4.42,2.71.98,3.91.56,1.2,1.27,2.24,2.13,3.11.86.87,1.85,1.56,2.97,2.06,1.12.5,2.32.75,3.6.75.84,0,1.67-.12,2.48-.35.81-.23,1.57-.55,2.27-.96.7-.41,1.33-.9,1.87-1.47.55-.58.97-1.21,1.29-1.9l2.06.56c-.34.87-.85,1.68-1.52,2.41-.67.73-1.45,1.37-2.34,1.9-.89.53-1.86.94-2.93,1.24-1.06.3-2.15.44-3.28.44ZM560.65,25.26c-.09-1.43-.41-2.75-.96-3.93-.55-1.19-1.25-2.21-2.11-3.07-.86-.86-1.85-1.53-2.97-2.01-1.12-.48-2.32-.73-3.6-.73s-2.48.24-3.6.73c-1.12.48-2.11,1.15-2.97,2.01-.86.86-1.54,1.89-2.06,3.09-.51,1.2-.82,2.5-.91,3.91h19.19Z"></path><path d="M587.93,38.36h-2.34v-13.57c0-3.15-.44-5.44-1.33-6.88-.89-1.43-2.3-2.15-4.24-2.15-1.03,0-2.05.19-3.07.56-1.01.37-1.96.91-2.83,1.59-.87.69-1.64,1.49-2.29,2.41-.66.92-1.14,1.91-1.45,2.97v15.07h-2.34V14.02h2.2v5.8c.5-.94,1.12-1.79,1.85-2.55.73-.76,1.56-1.42,2.48-1.97.92-.55,1.9-.97,2.93-1.26,1.03-.3,2.09-.44,3.18-.44,2.65,0,4.52.93,5.62,2.78,1.09,1.86,1.64,4.52,1.64,7.98v13.99Z"></path><path d="M605.62,37.19c-.13.06-.34.18-.63.35-.3.17-.67.34-1.12.49-.45.16-.96.3-1.52.42-.56.12-1.17.19-1.83.19s-1.27-.09-1.85-.28c-.58-.19-1.08-.47-1.52-.84-.44-.37-.78-.83-1.03-1.36-.25-.53-.37-1.15-.37-1.87V15.94h-3.42v-1.92h3.42V5.69h2.34v8.33h5.66v1.92h-5.66v17.78c0,.91.31,1.58.94,2.04.62.45,1.33.68,2.11.68.97,0,1.8-.16,2.5-.49.7-.33,1.13-.54,1.29-.63l.7,1.87Z"></path><path d="M619.33,38.83c-1.72,0-3.3-.34-4.75-1.01-1.45-.67-2.71-1.58-3.77-2.74-1.06-1.15-1.89-2.5-2.48-4.02-.59-1.53-.89-3.14-.89-4.82s.3-3.34.91-4.87c.61-1.53,1.44-2.87,2.5-4.02,1.06-1.15,2.32-2.07,3.77-2.74,1.45-.67,3.02-1.01,4.7-1.01s3.24.34,4.68,1.01c1.43.67,2.69,1.58,3.77,2.74,1.08,1.15,1.92,2.5,2.53,4.02.61,1.53.91,3.15.91,4.87s-.3,3.29-.91,4.82c-.61,1.53-1.44,2.87-2.5,4.02-1.06,1.15-2.32,2.07-3.77,2.74-1.45.67-3.02,1.01-4.7,1.01ZM609.79,26.33c0,1.44.25,2.78.75,4.05.5,1.26,1.18,2.36,2.04,3.3.86.94,1.86,1.68,3.02,2.22,1.15.55,2.39.82,3.7.82s2.54-.27,3.7-.82c1.15-.55,2.17-1.3,3.04-2.27.87-.97,1.56-2.08,2.06-3.35.5-1.26.75-2.63.75-4.09s-.25-2.78-.75-4.05c-.5-1.26-1.19-2.37-2.06-3.32-.87-.95-1.88-1.71-3.02-2.27-1.14-.56-2.36-.84-3.67-.84s-2.54.28-3.7.84c-1.15.56-2.16,1.33-3.02,2.29-.86.97-1.54,2.1-2.06,3.39-.51,1.3-.77,2.66-.77,4.09Z"></path><path d="M658.88,38.83c-1.68,0-3.25-.35-4.68-1.05-1.44-.7-2.68-1.64-3.72-2.81-1.05-1.17-1.86-2.51-2.43-4.02-.58-1.51-.87-3.08-.87-4.7s.28-3.29.84-4.82c.56-1.53,1.34-2.87,2.34-4.02,1-1.15,2.18-2.07,3.53-2.76,1.36-.69,2.85-1.03,4.47-1.03,1.06,0,2.06.16,3,.47.94.31,1.81.73,2.62,1.24.81.51,1.54,1.12,2.2,1.8.66.69,1.22,1.42,1.68,2.2V4.2h2.34v30.89c0,.78.33,1.17.98,1.17v2.11c-.19.03-.34.05-.47.07-.12.02-.25.02-.37.02-.62,0-1.15-.24-1.59-.73-.44-.48-.66-.99-.66-1.52v-2.71c-1,1.62-2.33,2.92-4,3.88-1.67.97-3.41,1.45-5.22,1.45ZM659.3,36.72c.84,0,1.75-.17,2.71-.51.97-.34,1.86-.82,2.69-1.43.83-.61,1.54-1.3,2.13-2.08.59-.78.94-1.62,1.03-2.53v-8c-.34-.87-.83-1.71-1.47-2.5-.64-.8-1.36-1.48-2.18-2.06-.81-.58-1.68-1.04-2.62-1.38-.94-.34-1.84-.51-2.71-.51-1.4,0-2.68.3-3.84.91-1.15.61-2.14,1.4-2.95,2.39-.81.98-1.44,2.11-1.87,3.37-.44,1.26-.66,2.57-.66,3.91s.25,2.73.75,3.98c.5,1.25,1.19,2.36,2.08,3.32.89.97,1.92,1.73,3.09,2.29,1.17.56,2.44.84,3.81.84Z"></path><path d="M687.99,38.83c-1.72,0-3.31-.34-4.77-1.01-1.47-.67-2.74-1.59-3.81-2.76-1.08-1.17-1.92-2.52-2.53-4.05-.61-1.53-.91-3.17-.91-4.91s.3-3.33.91-4.84c.61-1.51,1.44-2.84,2.5-3.98,1.06-1.14,2.32-2.04,3.77-2.69,1.45-.66,3.02-.98,4.7-.98s3.31.34,4.77,1.01c1.47.67,2.73,1.58,3.79,2.71,1.06,1.14,1.89,2.46,2.48,3.98.59,1.51.89,3.11.89,4.8v.59c0,.23-.02.38-.05.44h-21.34c.09,1.4.42,2.71.98,3.91.56,1.2,1.27,2.24,2.13,3.11.86.87,1.85,1.56,2.97,2.06,1.12.5,2.32.75,3.6.75.84,0,1.67-.12,2.48-.35.81-.23,1.57-.55,2.27-.96.7-.41,1.33-.9,1.87-1.47.55-.58.97-1.21,1.29-1.9l2.06.56c-.34.87-.85,1.68-1.52,2.41-.67.73-1.45,1.37-2.34,1.9-.89.53-1.86.94-2.93,1.24-1.06.3-2.15.44-3.28.44ZM697.53,25.26c-.09-1.43-.41-2.75-.96-3.93-.55-1.19-1.25-2.21-2.11-3.07-.86-.86-1.85-1.53-2.97-2.01-1.12-.48-2.32-.73-3.6-.73s-2.48.24-3.6.73c-1.12.48-2.11,1.15-2.97,2.01-.86.86-1.54,1.89-2.06,3.09-.51,1.2-.82,2.5-.91,3.91h19.19Z"></path></g><g><path d="M241.37,198.35v-31.52l-14,24.38h-2.22l-14-24.38v31.52h-3.78v-38.39h3.89l14.98,26.28,15.08-26.28h3.84v38.39h-3.78Z"></path><path d="M262.83,198.89c-3.06,0-5.34-1.02-6.84-3.05-1.5-2.04-2.24-5.07-2.24-9.11v-16.54h3.68v15.9c0,6.38,2.18,9.57,6.54,9.57,1.08,0,2.14-.18,3.19-.54,1.05-.36,2.01-.88,2.89-1.57.88-.68,1.68-1.5,2.38-2.43.7-.94,1.27-2,1.7-3.19v-17.73h3.68v23.41c0,1.01.43,1.51,1.3,1.51v3.24c-.43.07-.78.11-1.05.11h-.57c-.87-.04-1.57-.34-2.11-.92-.54-.58-.81-1.35-.81-2.32v-3.24c-1.23,2.2-2.89,3.9-5,5.11-2.11,1.21-4.35,1.81-6.73,1.81Z"></path><path d="M309.82,198.35h-3.68v-15.73c0-3.35-.5-5.79-1.49-7.3-.99-1.51-2.51-2.27-4.57-2.27-1.08,0-2.16.2-3.24.59-1.08.4-2.08.96-3,1.68-.92.72-1.74,1.58-2.46,2.57-.72.99-1.24,2.06-1.57,3.22v17.25h-3.68v-28.17h3.35v6.38c1.15-2.05,2.8-3.71,4.95-4.97,2.14-1.26,4.48-1.89,7-1.89,1.55,0,2.87.29,3.95.87,1.08.58,1.95,1.39,2.6,2.43.65,1.05,1.12,2.32,1.41,3.84.29,1.51.43,3.19.43,5.03v16.49Z"></path><path d="M317.66,164.28v-5.41h3.68v5.41h-3.68ZM317.66,198.35v-28.17h3.68v28.17h-3.68Z"></path><path d="M327.5,184.18c0-1.98.34-3.86,1.03-5.62.68-1.77,1.65-3.31,2.89-4.62,1.24-1.32,2.73-2.35,4.46-3.11,1.73-.76,3.64-1.14,5.73-1.14,2.67,0,4.99.6,6.97,1.81,1.98,1.21,3.48,2.84,4.49,4.89l-3.57,1.14c-.79-1.44-1.9-2.57-3.32-3.38-1.42-.81-3-1.22-4.73-1.22-1.44,0-2.78.29-4.03.87-1.24.58-2.33,1.36-3.24,2.35-.92.99-1.64,2.17-2.16,3.54-.52,1.37-.78,2.87-.78,4.49s.27,3.08.81,4.49,1.28,2.62,2.22,3.65c.94,1.03,2.03,1.84,3.27,2.43,1.24.59,2.57.89,3.97.89.9,0,1.79-.13,2.68-.38.88-.25,1.7-.6,2.46-1.05.76-.45,1.41-.96,1.95-1.54.54-.58.92-1.19,1.14-1.84l3.62,1.08c-.4,1.01-.97,1.94-1.73,2.78-.76.85-1.65,1.59-2.68,2.22-1.03.63-2.16,1.12-3.41,1.46-1.24.34-2.53.51-3.87.51-2.05,0-3.95-.39-5.68-1.16-1.73-.77-3.23-1.84-4.49-3.19-1.26-1.35-2.24-2.91-2.95-4.68-.7-1.77-1.05-3.66-1.05-5.68Z"></path><path d="M359.12,164.28v-5.41h3.68v5.41h-3.68ZM359.12,198.35v-28.17h3.68v28.17h-3.68Z"></path><path d="M385.29,198.89c-2.38,0-4.48-.6-6.3-1.81-1.82-1.21-3.29-2.73-4.41-4.57v17.36h-3.68v-39.68h3.3v5.46c1.15-1.77,2.65-3.2,4.49-4.3,1.84-1.1,3.84-1.65,6-1.65,1.95,0,3.73.41,5.35,1.22,1.62.81,3.03,1.89,4.22,3.24s2.12,2.91,2.78,4.68c.67,1.77,1,3.59,1,5.46,0,1.98-.31,3.86-.92,5.62-.61,1.77-1.49,3.32-2.62,4.65-1.14,1.33-2.49,2.39-4.06,3.16s-3.29,1.16-5.16,1.16ZM384.26,195.64c1.51,0,2.89-.32,4.14-.97,1.24-.65,2.31-1.5,3.19-2.57.88-1.06,1.56-2.27,2.03-3.62.47-1.35.7-2.75.7-4.19,0-1.51-.27-2.95-.81-4.33-.54-1.37-1.28-2.58-2.22-3.62-.94-1.05-2.05-1.87-3.32-2.49-1.28-.61-2.66-.92-4.14-.92-.94,0-1.92.19-2.95.57-1.03.38-1.98.88-2.87,1.51-.88.63-1.64,1.37-2.27,2.22-.63.85-1.02,1.74-1.16,2.68v8.65c.43,1.01.98,1.95,1.65,2.81.67.87,1.42,1.61,2.27,2.24.85.63,1.76,1.13,2.73,1.49.97.36,1.98.54,3.03.54Z"></path><path d="M411.35,198.89c-1.33,0-2.57-.23-3.7-.68-1.14-.45-2.13-1.07-2.97-1.87-.85-.79-1.51-1.72-1.97-2.78-.47-1.06-.7-2.21-.7-3.43s.29-2.36.87-3.41c.58-1.05,1.39-1.95,2.43-2.7,1.05-.76,2.29-1.34,3.73-1.76,1.44-.41,3.03-.62,4.76-.62,1.44,0,2.9.13,4.38.38,1.48.25,2.79.61,3.95,1.08v-2.54c0-2.49-.7-4.46-2.11-5.92-1.41-1.46-3.35-2.19-5.84-2.19-1.44,0-2.92.29-4.43.87-1.51.58-3.05,1.41-4.6,2.49l-1.3-2.43c3.64-2.45,7.17-3.68,10.6-3.68s6.31.99,8.33,2.97c2.02,1.98,3.03,4.72,3.03,8.22v12.71c0,1.01.45,1.51,1.35,1.51v3.24c-.61.11-1.08.16-1.41.16-.94,0-1.67-.23-2.19-.7-.52-.47-.8-1.12-.84-1.95l-.11-2.22c-1.3,1.69-2.93,2.99-4.89,3.89-1.97.9-4.08,1.35-6.35,1.35ZM412.22,196.07c1.91,0,3.67-.36,5.27-1.08,1.6-.72,2.82-1.68,3.65-2.87.32-.32.57-.68.73-1.05s.24-.73.24-1.05v-4.6c-1.23-.47-2.5-.83-3.81-1.08-1.32-.25-2.66-.38-4.03-.38-2.6,0-4.7.54-6.33,1.62-1.62,1.08-2.43,2.51-2.43,4.27,0,.87.17,1.68.51,2.43.34.76.81,1.42,1.41,1.97.59.56,1.31,1,2.14,1.32.83.32,1.71.49,2.65.49Z"></path><path d="M433.9,158.88h3.68v33.09c0,1.05.29,1.87.87,2.46.58.59,1.39.89,2.43.89.4,0,.87-.05,1.41-.16.54-.11,1.05-.25,1.51-.43l.65,2.97c-.69.29-1.52.52-2.51.7-.99.18-1.85.27-2.57.27-1.69,0-3.03-.48-4-1.43-.97-.95-1.46-2.3-1.46-4.03v-34.33Z"></path><path d="M448.44,164.28v-5.41h3.68v5.41h-3.68ZM448.44,198.35v-28.17h3.68v28.17h-3.68Z"></path><path d="M471.8,198.89c-1.95,0-3.75-.41-5.41-1.22-1.66-.81-3.08-1.88-4.27-3.22-1.19-1.33-2.12-2.87-2.78-4.62-.67-1.75-1-3.58-1-5.49s.32-3.87.97-5.65c.65-1.78,1.54-3.34,2.68-4.68,1.14-1.33,2.49-2.39,4.06-3.16,1.57-.77,3.29-1.16,5.16-1.16,2.38,0,4.49.62,6.33,1.87,1.84,1.24,3.28,2.75,4.33,4.51v-17.19h3.68v34.71c0,1.01.43,1.51,1.3,1.51v3.24c-.54.11-.97.16-1.3.16-.87,0-1.62-.28-2.27-.84-.65-.56-.97-1.23-.97-2.03v-2.76c-1.12,1.84-2.63,3.3-4.54,4.38-1.91,1.08-3.89,1.62-5.95,1.62ZM472.61,195.64c.9,0,1.87-.18,2.89-.54,1.03-.36,1.99-.86,2.89-1.49.9-.63,1.67-1.37,2.3-2.22.63-.85,1.02-1.76,1.16-2.73v-8.7c-.36-.97-.88-1.88-1.57-2.73-.68-.85-1.47-1.59-2.35-2.24-.88-.65-1.83-1.15-2.84-1.51-1.01-.36-2-.54-2.97-.54-1.51,0-2.88.32-4.11.97-1.23.65-2.28,1.51-3.16,2.57-.88,1.06-1.56,2.28-2.03,3.65-.47,1.37-.7,2.78-.7,4.22,0,1.51.27,2.96.81,4.33.54,1.37,1.28,2.57,2.22,3.6.94,1.03,2.05,1.85,3.33,2.46,1.28.61,2.66.92,4.14.92Z"></path><path d="M500.94,198.89c-1.33,0-2.57-.23-3.7-.68-1.14-.45-2.13-1.07-2.97-1.87-.85-.79-1.51-1.72-1.97-2.78-.47-1.06-.7-2.21-.7-3.43s.29-2.36.87-3.41c.58-1.05,1.39-1.95,2.43-2.7,1.05-.76,2.29-1.34,3.73-1.76,1.44-.41,3.03-.62,4.76-.62,1.44,0,2.9.13,4.38.38,1.48.25,2.79.61,3.95,1.08v-2.54c0-2.49-.7-4.46-2.11-5.92-1.41-1.46-3.35-2.19-5.84-2.19-1.44,0-2.92.29-4.43.87-1.51.58-3.05,1.41-4.6,2.49l-1.3-2.43c3.64-2.45,7.17-3.68,10.6-3.68s6.31.99,8.33,2.97c2.02,1.98,3.03,4.72,3.03,8.22v12.71c0,1.01.45,1.51,1.35,1.51v3.24c-.61.11-1.08.16-1.41.16-.94,0-1.67-.23-2.19-.7-.52-.47-.8-1.12-.84-1.95l-.11-2.22c-1.3,1.69-2.93,2.99-4.89,3.89-1.97.9-4.08,1.35-6.35,1.35ZM501.8,196.07c1.91,0,3.67-.36,5.27-1.08,1.6-.72,2.82-1.68,3.65-2.87.32-.32.57-.68.73-1.05s.24-.73.24-1.05v-4.6c-1.23-.47-2.5-.83-3.81-1.08-1.32-.25-2.66-.38-4.03-.38-2.6,0-4.7.54-6.33,1.62-1.62,1.08-2.43,2.51-2.43,4.27,0,.87.17,1.68.51,2.43.34.76.81,1.42,1.41,1.97.59.56,1.31,1,2.14,1.32.83.32,1.71.49,2.65.49Z"></path><path d="M534.89,198.89c-1.95,0-3.75-.41-5.41-1.22-1.66-.81-3.08-1.88-4.27-3.22-1.19-1.33-2.12-2.87-2.78-4.62-.67-1.75-1-3.58-1-5.49s.32-3.87.97-5.65c.65-1.78,1.54-3.34,2.68-4.68,1.14-1.33,2.49-2.39,4.06-3.16,1.57-.77,3.29-1.16,5.16-1.16,2.38,0,4.49.62,6.33,1.87,1.84,1.24,3.28,2.75,4.33,4.51v-17.19h3.68v34.71c0,1.01.43,1.51,1.3,1.51v3.24c-.54.11-.97.16-1.3.16-.87,0-1.62-.28-2.27-.84-.65-.56-.97-1.23-.97-2.03v-2.76c-1.12,1.84-2.63,3.3-4.54,4.38-1.91,1.08-3.89,1.62-5.95,1.62ZM535.7,195.64c.9,0,1.87-.18,2.89-.54,1.03-.36,1.99-.86,2.89-1.49.9-.63,1.67-1.37,2.3-2.22.63-.85,1.02-1.76,1.16-2.73v-8.7c-.36-.97-.88-1.88-1.57-2.73-.68-.85-1.47-1.59-2.35-2.24-.88-.65-1.83-1.15-2.84-1.51-1.01-.36-2-.54-2.97-.54-1.51,0-2.88.32-4.11.97-1.23.65-2.28,1.51-3.16,2.57-.88,1.06-1.56,2.28-2.03,3.65-.47,1.37-.7,2.78-.7,4.22,0,1.51.27,2.96.81,4.33.54,1.37,1.28,2.57,2.22,3.6.94,1.03,2.05,1.85,3.33,2.46,1.28.61,2.66.92,4.14.92Z"></path><path d="M582.31,198.89c-1.95,0-3.75-.41-5.41-1.22-1.66-.81-3.08-1.88-4.27-3.22-1.19-1.33-2.12-2.87-2.78-4.62-.67-1.75-1-3.58-1-5.49s.32-3.87.97-5.65c.65-1.78,1.54-3.34,2.68-4.68,1.14-1.33,2.49-2.39,4.06-3.16,1.57-.77,3.29-1.16,5.16-1.16,2.38,0,4.49.62,6.33,1.87,1.84,1.24,3.28,2.75,4.33,4.51v-17.19h3.68v34.71c0,1.01.43,1.51,1.3,1.51v3.24c-.54.11-.97.16-1.3.16-.87,0-1.62-.28-2.27-.84-.65-.56-.97-1.23-.97-2.03v-2.76c-1.12,1.84-2.63,3.3-4.54,4.38-1.91,1.08-3.89,1.62-5.95,1.62ZM583.12,195.64c.9,0,1.87-.18,2.89-.54,1.03-.36,1.99-.86,2.89-1.49.9-.63,1.67-1.37,2.3-2.22.63-.85,1.02-1.76,1.16-2.73v-8.7c-.36-.97-.88-1.88-1.57-2.73-.68-.85-1.47-1.59-2.35-2.24-.88-.65-1.83-1.15-2.84-1.51-1.01-.36-2-.54-2.97-.54-1.51,0-2.88.32-4.11.97-1.23.65-2.28,1.51-3.16,2.57-.88,1.06-1.56,2.28-2.03,3.65-.47,1.37-.7,2.78-.7,4.22,0,1.51.27,2.96.81,4.33.54,1.37,1.28,2.57,2.22,3.6.94,1.03,2.05,1.85,3.33,2.46,1.28.61,2.66.92,4.14.92Z"></path><path d="M616.53,198.89c-2.05,0-3.94-.39-5.65-1.16-1.71-.77-3.2-1.84-4.46-3.19-1.26-1.35-2.24-2.91-2.95-4.68-.7-1.77-1.05-3.66-1.05-5.68s.35-3.85,1.05-5.6c.7-1.75,1.68-3.28,2.92-4.6,1.24-1.32,2.73-2.36,4.46-3.14,1.73-.77,3.6-1.16,5.62-1.16s3.94.39,5.65,1.16c1.71.78,3.18,1.83,4.41,3.16,1.22,1.33,2.18,2.87,2.87,4.6.68,1.73,1.03,3.57,1.03,5.51v.87c0,.29-.02.49-.05.59h-24.11c.11,1.51.46,2.91,1.05,4.19.59,1.28,1.36,2.39,2.3,3.33.94.94,2.01,1.67,3.22,2.19,1.21.52,2.5.78,3.87.78.9,0,1.8-.13,2.7-.38.9-.25,1.73-.59,2.49-1.03.76-.43,1.44-.96,2.05-1.6.61-.63,1.08-1.32,1.41-2.08l3.19.87c-.43,1.05-1.05,1.99-1.84,2.84-.79.85-1.71,1.59-2.76,2.22-1.05.63-2.2,1.12-3.46,1.46-1.26.34-2.58.51-3.95.51ZM626.91,182.77c-.11-1.51-.46-2.89-1.05-4.14s-1.35-2.32-2.27-3.22c-.92-.9-1.98-1.6-3.19-2.11-1.21-.5-2.5-.76-3.87-.76s-2.67.25-3.89.76c-1.23.51-2.3,1.21-3.22,2.11-.92.9-1.66,1.98-2.22,3.24-.56,1.26-.89,2.63-1,4.11h20.71Z"></path><path d="M673.08,167.15c-1.08-1.22-2.52-2.22-4.33-2.97-1.8-.76-3.86-1.14-6.16-1.14-3.39,0-5.86.64-7.41,1.92-1.55,1.28-2.32,3.02-2.32,5.22,0,1.15.21,2.1.62,2.84.41.74,1.05,1.38,1.92,1.92.87.54,1.97,1.01,3.33,1.41,1.35.4,2.95.79,4.78,1.19,2.05.43,3.9.92,5.54,1.46,1.64.54,3.04,1.22,4.19,2.03,1.15.81,2.04,1.79,2.65,2.95.61,1.15.92,2.6.92,4.33s-.34,3.3-1.03,4.6c-.69,1.3-1.64,2.38-2.87,3.24-1.23.87-2.69,1.51-4.38,1.92-1.69.41-3.55.62-5.57.62-5.95,0-11.08-1.86-15.41-5.57l1.89-3.08c.68.72,1.5,1.41,2.46,2.05.95.65,2.02,1.22,3.19,1.7,1.17.49,2.42.87,3.76,1.14,1.33.27,2.74.41,4.22.41,3.06,0,5.45-.55,7.16-1.65,1.71-1.1,2.57-2.77,2.57-5,0-1.19-.24-2.19-.73-3s-1.22-1.51-2.19-2.11-2.18-1.11-3.62-1.54c-1.44-.43-3.12-.87-5.03-1.3-2.02-.47-3.78-.95-5.3-1.46-1.51-.5-2.79-1.14-3.84-1.89-1.05-.76-1.83-1.67-2.35-2.73-.52-1.06-.78-2.37-.78-3.92,0-1.77.33-3.34,1-4.73.67-1.39,1.61-2.54,2.84-3.46,1.22-.92,2.67-1.62,4.33-2.11,1.66-.49,3.5-.73,5.51-.73,2.56,0,4.84.39,6.84,1.16,2,.78,3.81,1.87,5.43,3.27l-1.84,3.03Z"></path><path d="M689.79,198.89c-1.33,0-2.57-.23-3.7-.68-1.14-.45-2.13-1.07-2.97-1.87-.85-.79-1.51-1.72-1.97-2.78-.47-1.06-.7-2.21-.7-3.43s.29-2.36.87-3.41c.58-1.05,1.39-1.95,2.43-2.7,1.05-.76,2.29-1.34,3.73-1.76,1.44-.41,3.03-.62,4.76-.62,1.44,0,2.9.13,4.38.38,1.48.25,2.79.61,3.95,1.08v-2.54c0-2.49-.7-4.46-2.11-5.92-1.41-1.46-3.35-2.19-5.84-2.19-1.44,0-2.92.29-4.43.87-1.51.58-3.05,1.41-4.6,2.49l-1.3-2.43c3.64-2.45,7.17-3.68,10.6-3.68s6.31.99,8.33,2.97c2.02,1.98,3.03,4.72,3.03,8.22v12.71c0,1.01.45,1.51,1.35,1.51v3.24c-.61.11-1.08.16-1.41.16-.94,0-1.67-.23-2.19-.7-.52-.47-.8-1.12-.84-1.95l-.11-2.22c-1.3,1.69-2.93,2.99-4.89,3.89-1.97.9-4.08,1.35-6.35,1.35ZM690.65,196.07c1.91,0,3.67-.36,5.27-1.08,1.6-.72,2.82-1.68,3.65-2.87.32-.32.57-.68.73-1.05s.24-.73.24-1.05v-4.6c-1.23-.47-2.5-.83-3.81-1.08-1.32-.25-2.66-.38-4.03-.38-2.6,0-4.7.54-6.33,1.62-1.62,1.08-2.43,2.51-2.43,4.27,0,.87.17,1.68.51,2.43.34.76.81,1.42,1.41,1.97.59.56,1.31,1,2.14,1.32.83.32,1.71.49,2.65.49Z"></path><path d="M735.85,198.35h-3.68v-15.73c0-3.35-.5-5.79-1.49-7.3-.99-1.51-2.51-2.27-4.57-2.27-1.08,0-2.16.2-3.24.59-1.08.4-2.08.96-3,1.68-.92.72-1.74,1.58-2.46,2.57-.72.99-1.24,2.06-1.57,3.22v17.25h-3.68v-28.17h3.35v6.38c1.15-2.05,2.8-3.71,4.95-4.97,2.14-1.26,4.48-1.89,7-1.89,1.55,0,2.87.29,3.95.87,1.08.58,1.95,1.39,2.6,2.43.65,1.05,1.12,2.32,1.41,3.84.29,1.51.43,3.19.43,5.03v16.49Z"></path><path d="M758.23,198.35v-38.39h25.19v3.35h-21.41v14.11h18.06v3.14h-18.06v17.79h-3.78Z"></path><path d="M799.65,198.89c-2.05,0-3.94-.39-5.65-1.16-1.71-.77-3.2-1.84-4.46-3.19-1.26-1.35-2.24-2.91-2.95-4.68-.7-1.77-1.05-3.66-1.05-5.68s.35-3.85,1.05-5.6c.7-1.75,1.68-3.28,2.92-4.6,1.24-1.32,2.73-2.36,4.46-3.14,1.73-.77,3.6-1.16,5.62-1.16s3.94.39,5.65,1.16c1.71.78,3.18,1.83,4.41,3.16,1.22,1.33,2.18,2.87,2.87,4.6.68,1.73,1.03,3.57,1.03,5.51v.87c0,.29-.02.49-.05.59h-24.11c.11,1.51.46,2.91,1.05,4.19.59,1.28,1.36,2.39,2.3,3.33.94.94,2.01,1.67,3.22,2.19,1.21.52,2.5.78,3.87.78.9,0,1.8-.13,2.7-.38.9-.25,1.73-.59,2.49-1.03.76-.43,1.44-.96,2.05-1.6.61-.63,1.08-1.32,1.41-2.08l3.19.87c-.43,1.05-1.05,1.99-1.84,2.84-.79.85-1.71,1.59-2.76,2.22-1.05.63-2.2,1.12-3.46,1.46-1.26.34-2.58.51-3.95.51ZM810.03,182.77c-.11-1.51-.46-2.89-1.05-4.14s-1.35-2.32-2.27-3.22c-.92-.9-1.98-1.6-3.19-2.11-1.21-.5-2.5-.76-3.87-.76s-2.67.25-3.89.76c-1.23.51-2.3,1.21-3.22,2.11-.92.9-1.66,1.98-2.22,3.24-.56,1.26-.89,2.63-1,4.11h20.71Z"></path><path d="M833.28,173.42c-2.49.07-4.65.76-6.49,2.05-1.84,1.3-3.14,3.08-3.89,5.35v17.52h-3.68v-28.17h3.46v6.76c1.05-2.16,2.45-3.86,4.22-5.08,1.77-1.22,3.66-1.84,5.68-1.84.29,0,.52.02.7.05v3.35Z"></path><path d="M861.88,198.35h-3.68v-15.73c0-3.35-.5-5.79-1.49-7.3-.99-1.51-2.51-2.27-4.57-2.27-1.08,0-2.16.2-3.24.59-1.08.4-2.08.96-3,1.68-.92.72-1.74,1.58-2.46,2.57-.72.99-1.24,2.06-1.57,3.22v17.25h-3.68v-28.17h3.35v6.38c1.15-2.05,2.8-3.71,4.95-4.97,2.14-1.26,4.48-1.89,7-1.89,1.55,0,2.87.29,3.95.87,1.08.58,1.95,1.39,2.6,2.43.65,1.05,1.12,2.32,1.41,3.84.29,1.51.43,3.19.43,5.03v16.49Z"></path><path d="M876.8,198.89c-1.33,0-2.57-.23-3.7-.68-1.14-.45-2.13-1.07-2.97-1.87-.85-.79-1.51-1.72-1.97-2.78-.47-1.06-.7-2.21-.7-3.43s.29-2.36.87-3.41c.58-1.05,1.39-1.95,2.43-2.7,1.05-.76,2.29-1.34,3.73-1.76,1.44-.41,3.03-.62,4.76-.62,1.44,0,2.9.13,4.38.38,1.48.25,2.79.61,3.95,1.08v-2.54c0-2.49-.7-4.46-2.11-5.92-1.41-1.46-3.35-2.19-5.84-2.19-1.44,0-2.92.29-4.43.87-1.51.58-3.05,1.41-4.6,2.49l-1.3-2.43c3.64-2.45,7.17-3.68,10.6-3.68s6.31.99,8.33,2.97c2.02,1.98,3.03,4.72,3.03,8.22v12.71c0,1.01.45,1.51,1.35,1.51v3.24c-.61.11-1.08.16-1.41.16-.94,0-1.67-.23-2.19-.7-.52-.47-.8-1.12-.84-1.95l-.11-2.22c-1.3,1.69-2.93,2.99-4.89,3.89-1.97.9-4.08,1.35-6.35,1.35ZM877.67,196.07c1.91,0,3.67-.36,5.27-1.08,1.6-.72,2.82-1.68,3.65-2.87.32-.32.57-.68.73-1.05s.24-.73.24-1.05v-4.6c-1.23-.47-2.5-.83-3.81-1.08-1.32-.25-2.66-.38-4.03-.38-2.6,0-4.7.54-6.33,1.62-1.62,1.08-2.43,2.51-2.43,4.27,0,.87.17,1.68.51,2.43.34.76.81,1.42,1.41,1.97.59.56,1.31,1,2.14,1.32.83.32,1.71.49,2.65.49Z"></path><path d="M922.86,198.35h-3.68v-15.73c0-3.35-.5-5.79-1.49-7.3-.99-1.51-2.51-2.27-4.57-2.27-1.08,0-2.16.2-3.24.59-1.08.4-2.08.96-3,1.68-.92.72-1.74,1.58-2.46,2.57-.72.99-1.24,2.06-1.57,3.22v17.25h-3.68v-28.17h3.35v6.38c1.15-2.05,2.8-3.71,4.95-4.97,2.14-1.26,4.48-1.89,7-1.89,1.55,0,2.87.29,3.95.87,1.08.58,1.95,1.39,2.6,2.43.65,1.05,1.12,2.32,1.41,3.84.29,1.51.43,3.19.43,5.03v16.49Z"></path><path d="M942.27,198.89c-1.95,0-3.75-.41-5.41-1.22-1.66-.81-3.08-1.88-4.27-3.22-1.19-1.33-2.12-2.87-2.78-4.62-.67-1.75-1-3.58-1-5.49s.32-3.87.97-5.65c.65-1.78,1.54-3.34,2.68-4.68,1.14-1.33,2.49-2.39,4.06-3.16,1.57-.77,3.29-1.16,5.16-1.16,2.38,0,4.49.62,6.33,1.87,1.84,1.24,3.28,2.75,4.33,4.51v-17.19h3.68v34.71c0,1.01.43,1.51,1.3,1.51v3.24c-.54.11-.97.16-1.3.16-.87,0-1.62-.28-2.27-.84-.65-.56-.97-1.23-.97-2.03v-2.76c-1.12,1.84-2.63,3.3-4.54,4.38-1.91,1.08-3.89,1.62-5.95,1.62ZM943.09,195.64c.9,0,1.87-.18,2.89-.54,1.03-.36,1.99-.86,2.89-1.49.9-.63,1.67-1.37,2.3-2.22.63-.85,1.02-1.76,1.16-2.73v-8.7c-.36-.97-.88-1.88-1.57-2.73-.68-.85-1.47-1.59-2.35-2.24-.88-.65-1.83-1.15-2.84-1.51-1.01-.36-2-.54-2.97-.54-1.51,0-2.88.32-4.11.97-1.23.65-2.28,1.51-3.16,2.57-.88,1.06-1.56,2.28-2.03,3.65-.47,1.37-.7,2.78-.7,4.22,0,1.51.27,2.96.81,4.33.54,1.37,1.28,2.57,2.22,3.6.94,1.03,2.05,1.85,3.33,2.46,1.28.61,2.66.92,4.14.92Z"></path><path d="M976.34,198.89c-2.05,0-3.93-.39-5.62-1.16-1.69-.77-3.16-1.83-4.41-3.16-1.24-1.33-2.21-2.88-2.89-4.65-.69-1.77-1.03-3.62-1.03-5.57s.35-3.86,1.05-5.62c.7-1.77,1.68-3.32,2.92-4.65,1.24-1.33,2.71-2.4,4.41-3.19,1.69-.79,3.55-1.19,5.57-1.19s3.88.4,5.6,1.19c1.71.79,3.19,1.86,4.43,3.19,1.24,1.33,2.22,2.88,2.92,4.65.7,1.77,1.05,3.64,1.05,5.62s-.34,3.8-1.03,5.57c-.69,1.77-1.65,3.32-2.89,4.65-1.24,1.33-2.72,2.39-4.43,3.16-1.71.77-3.6,1.16-5.65,1.16ZM966.12,184.4c0,1.59.27,3.05.81,4.41s1.27,2.54,2.19,3.57c.92,1.03,2,1.83,3.24,2.41,1.24.58,2.57.87,3.97.87s2.73-.3,3.97-.89c1.24-.59,2.33-1.41,3.27-2.43.94-1.03,1.68-2.23,2.22-3.6.54-1.37.81-2.85.81-4.43s-.27-3.02-.81-4.41c-.54-1.39-1.28-2.6-2.22-3.62-.94-1.03-2.03-1.84-3.27-2.43-1.24-.59-2.57-.89-3.97-.89s-2.72.3-3.95.89c-1.23.59-2.31,1.42-3.24,2.46-.94,1.05-1.68,2.26-2.22,3.65-.54,1.39-.81,2.87-.81,4.46Z"></path></g><g><rect x="152.9" y="137.16" width="858.92" height="6.45"></rect><path d="M1011.82,127.45c-7.14,0-12.93,5.79-12.93,12.93s5.79,12.93,12.93,12.93,12.93-5.79,12.93-12.93-5.79-12.93-12.93-12.93Z"></path><g><rect x="5.96" y="157.07" width="80.32" height="6.45" transform="translate(-79.39 50.44) rotate(-32.75)"></rect><path d="M.3,177.03c-1.51,6.97,2.93,13.87,9.9,15.38,6.97,1.51,13.87-2.93,15.38-9.9,1.51-6.97-2.93-13.87-9.9-15.38s-13.87,2.93-15.38,9.9Z"></path><rect x="192.19" y="10.52" width="6.45" height="80.32" transform="translate(-6.44 47.24) rotate(-13.56)"></rect><polygon points="153.69 142.98 76.98 142.98 24.62 90.62 27.29 84.18 79.65 136.53 151.02 136.53 203.38 84.18 304.41 84.18 304.41 90.62 206.05 90.62 153.69 142.98"></polygon><path d="M194.67,1.9c-6.09-3.72-14.07-1.8-17.79,4.29-3.72,6.09-1.8,14.07,4.29,17.79s14.07,1.8,17.79-4.29c3.72-6.09,1.8-14.07-4.29-17.79Z"></path><path d="M25.96,102.27c-8.2,0-14.87-6.67-14.87-14.87s6.67-14.87,14.87-14.87,14.87,6.67,14.87,14.87-6.67,14.87-14.87,14.87ZM25.96,76.4c-6.06,0-11,4.93-11,11s4.93,11,11,11,11-4.93,11-11-4.93-11-11-11Z"></path><path d="M153.14,126.82c-7.14,0-12.93,5.79-12.93,12.93s5.79,12.93,12.93,12.93,12.93-5.79,12.93-12.93-5.79-12.93-12.93-12.93Z"></path><path d="M78.58,126.82c-7.14,0-12.93,5.79-12.93,12.93s5.79,12.93,12.93,12.93,12.93-5.79,12.93-12.93-5.79-12.93-12.93-12.93Z"></path><path d="M299.73,74.76c-7.14,0-12.93,5.79-12.93,12.93s5.79,12.93,12.93,12.93,12.93-5.79,12.93-12.93-5.79-12.93-12.93-12.93Z"></path><path d="M204.42,102.27c-8.2,0-14.87-6.67-14.87-14.87s6.67-14.87,14.87-14.87,14.87,6.67,14.87,14.87-6.67,14.87-14.87,14.87ZM204.42,76.4c-6.06,0-11,4.93-11,11s4.93,11,11,11,11-4.93,11-11-4.93-11-11-11Z"></path></g></g></g></g></svg>