<?xml version="1.0" standalone="no"?>
<!DOCTYPE svg PUBLIC "-//W3C//DTD SVG 20010904//EN"
 "http://www.w3.org/TR/2001/REC-SVG-20010904/DTD/svg10.dtd">
<svg version="1.0" xmlns="http://www.w3.org/2000/svg"
 width="500.000000pt" height="500.000000pt" viewBox="0 0 500.000000 500.000000"
 preserveAspectRatio="xMidYMid meet">

<g transform="translate(0.000000,500.000000) scale(0.100000,-0.100000)"
fill="#530076" stroke="none">
<path d="M2254 4480 c-99 -11 -239 -45 -324 -79 l-71 -29 -56 29 c-94 50 -176
40 -355 -43 -222 -102 -404 -218 -452 -287 -26 -38 -28 -46 -23 -108 6 -79 33
-143 131 -313 73 -126 95 -150 136 -150 61 0 99 56 191 287 124 312 252 533
308 533 9 0 35 -10 58 -22 l41 -22 79 36 c161 75 292 98 558 98 271 0 420 -26
589 -103 l68 -31 42 22 c22 12 51 22 64 22 50 0 189 -241 306 -531 91 -227
122 -276 181 -286 29 -5 41 -1 60 17 57 53 197 324 216 417 11 54 11 67 -3 96
-39 83 -139 157 -368 275 -163 84 -244 113 -332 119 -59 5 -72 2 -127 -25
l-62 -31 -47 20 c-85 37 -215 70 -332 85 -119 15 -354 17 -476 4z"/>
<path d="M1929 3801 c-92 -30 -174 -94 -162 -128 7 -20 26 -16 103 23 89 46
180 53 227 18 48 -36 64 -75 66 -161 2 -73 4 -78 24 -81 30 -4 45 33 46 114 1
105 -54 185 -150 220 -51 18 -87 16 -154 -5z"/>
<path d="M2887 3803 c-57 -19 -121 -85 -136 -139 -12 -43 -13 -125 -2 -164 5
-18 14 -25 31 -25 24 0 25 3 30 86 8 134 46 175 161 173 56 -1 77 -7 137 -39
70 -37 102 -40 102 -11 0 20 -64 72 -126 101 -68 32 -137 39 -197 18z"/>
<path d="M1760 3554 c-87 -38 -150 -124 -150 -208 0 -135 116 -242 241 -222
l42 7 -16 -23 c-132 -186 -170 -271 -171 -378 0 -99 23 -172 84 -264 118 -176
315 -298 544 -337 101 -17 312 -6 406 21 226 64 403 207 493 397 30 63 32 76
32 173 0 100 -2 108 -35 175 -19 38 -58 102 -86 141 -28 39 -54 76 -58 83 -6
9 5 10 42 5 125 -16 232 84 232 217 0 27 -6 64 -13 82 -36 84 -128 147 -216
147 -64 0 -91 -11 -140 -55 -50 -46 -75 -108 -69 -174 l5 -49 -57 39 c-119 81
-244 119 -391 119 -146 0 -268 -39 -376 -120 -29 -22 -53 -40 -55 -40 -2 0 -3
33 -3 74 0 67 -3 79 -30 118 -42 59 -96 88 -165 87 -30 0 -71 -7 -90 -15z
m155 -134 c27 -29 10 -74 -28 -78 -36 -4 -57 13 -57 47 0 51 50 69 85 31z
m1254 6 c16 -19 10 -66 -10 -79 -24 -15 -66 -1 -72 25 -13 49 51 91 82 54z
m-527 -72 c176 -52 343 -202 487 -438 50 -81 78 -181 65 -226 -9 -31 -9 -31
-60 57 -103 177 -234 318 -353 382 -39 20 -61 39 -61 49 0 28 -51 78 -98 96
-56 21 -202 21 -265 0 -53 -18 -97 -58 -97 -88 0 -16 -15 -29 -58 -50 -92 -48
-253 -216 -338 -353 -38 -62 -72 -113 -76 -113 -5 0 -8 26 -8 58 1 69 28 140
92 237 162 244 339 378 543 409 49 7 170 -4 227 -20z m-219 -236 c16 -25 -1
-66 -34 -84 -52 -26 -131 1 -116 40 3 8 15 12 31 9 39 -8 76 5 76 26 0 34 24
39 43 9z m179 -5 c3 -26 6 -28 50 -27 54 0 67 -15 37 -42 -47 -42 -139 -11
-139 46 0 50 46 70 52 23z m-92 -310 c5 -85 9 -92 75 -155 46 -44 149 -91 208
-96 43 -3 62 2 112 27 54 27 61 29 75 15 13 -14 12 -18 -17 -44 -42 -38 -101
-53 -188 -48 -87 5 -160 37 -232 102 l-53 48 -52 -45 c-83 -70 -150 -99 -239
-105 -81 -5 -134 7 -181 40 -29 20 -37 53 -15 61 6 2 32 -8 57 -22 99 -57 236
-24 347 84 l53 51 0 80 c0 84 4 97 30 92 11 -3 16 -22 20 -85z"/>
<path d="M3634 3412 c-8 -5 -13 -72 -16 -207 -4 -175 -8 -212 -31 -300 -28
-105 -94 -254 -148 -332 -18 -25 -58 -77 -91 -114 -32 -37 -58 -72 -58 -77 0
-19 30 -34 55 -28 51 13 195 217 263 374 62 145 98 378 86 560 -8 115 -23 148
-60 124z"/>
<path d="M1296 3401 c-15 -24 -24 -211 -15 -315 19 -230 90 -422 217 -591 99
-132 150 -168 182 -130 15 18 10 24 -84 134 -170 197 -252 452 -245 761 l4
145 -27 3 c-14 2 -29 -1 -32 -7z"/>
<path d="M2083 2009 c-268 -105 -301 -517 -52 -644 144 -74 333 -46 429 63 22
24 40 50 40 56 0 6 -27 25 -59 42 l-58 32 -17 -28 c-47 -80 -211 -93 -289 -22
-28 25 -57 86 -63 136 -15 107 50 221 141 246 82 23 176 -3 211 -59 l19 -29
61 30 c73 36 74 46 8 110 -69 67 -104 80 -219 84 -83 3 -109 1 -152 -17z"/>
<path d="M2813 2016 c-146 -46 -236 -178 -237 -346 0 -101 27 -171 92 -242
129 -139 375 -140 503 -1 21 23 39 49 39 57 0 8 -24 28 -54 44 l-54 29 -22
-29 c-44 -59 -158 -86 -233 -54 -41 17 -91 74 -107 122 -18 53 -8 153 21 205
61 111 213 131 300 39 l35 -37 62 31 62 31 -23 37 c-30 50 -90 95 -150 113
-61 18 -177 18 -234 1z"/>
<path d="M1042 1678 l3 -343 60 0 60 0 5 230 5 230 92 -180 c50 -99 98 -189
106 -199 13 -17 21 -4 109 165 52 101 100 185 107 187 8 3 11 -57 11 -218 l0
-221 63 3 62 3 3 343 2 343 -81 -3 -81 -3 -88 -168 c-48 -93 -91 -168 -95
-168 -4 0 -47 75 -94 168 l-87 168 -82 3 -82 3 2 -343z"/>
<path d="M3330 1675 l0 -348 178 6 c133 4 190 9 231 23 66 22 147 93 181 160
22 43 25 62 25 159 0 135 -21 192 -97 260 -73 66 -119 77 -335 82 l-183 5 0
-347z m366 196 c52 -24 81 -65 96 -136 8 -43 8 -69 -1 -108 -26 -114 -87 -159
-223 -165 l-88 -4 0 216 0 216 88 0 c63 0 98 -6 128 -19z"/>
</g>
</svg>
